<mxfile host="65bd71144e">
    <diagram id="c9Hg6unFxhpInGenaWn_" name="自己座標系と世界座標系">
        <mxGraphModel dx="1204" dy="790" grid="1" gridSize="10" guides="1" tooltips="1" connect="1" arrows="1" fold="1" page="1" pageScale="1" pageWidth="1654" pageHeight="1169" math="0" shadow="0">
            <root>
                <mxCell id="0"/>
                <mxCell id="1" parent="0"/>
                <mxCell id="11" value="" style="endArrow=classic;html=1;" parent="1" edge="1">
                    <mxGeometry width="50" height="50" relative="1" as="geometry">
                        <mxPoint x="40" y="240" as="sourcePoint"/>
                        <mxPoint x="240" y="240" as="targetPoint"/>
                    </mxGeometry>
                </mxCell>
                <mxCell id="12" value="ロボットのワールド座標系 = x(mm), y(mm), θ(rad)" style="text;html=1;strokeColor=none;fillColor=none;align=left;verticalAlign=middle;whiteSpace=wrap;rounded=0;fontSize=18;" parent="1" vertex="1">
                    <mxGeometry x="6.77" y="10" width="423.23" height="40" as="geometry"/>
                </mxCell>
                <mxCell id="13" value="" style="endArrow=classic;html=1;entryX=0.5;entryY=1;entryDx=0;entryDy=0;" parent="1" target="25" edge="1">
                    <mxGeometry width="50" height="50" relative="1" as="geometry">
                        <mxPoint x="80" y="280" as="sourcePoint"/>
                        <mxPoint x="78" y="80" as="targetPoint"/>
                    </mxGeometry>
                </mxCell>
                <mxCell id="16" value="" style="endArrow=none;dashed=1;html=1;fontSize=18;" parent="1" edge="1">
                    <mxGeometry width="50" height="50" relative="1" as="geometry">
                        <mxPoint x="170" y="80" as="sourcePoint"/>
                        <mxPoint x="170" y="240" as="targetPoint"/>
                    </mxGeometry>
                </mxCell>
                <mxCell id="17" value="" style="endArrow=none;dashed=1;html=1;fontSize=18;" parent="1" edge="1">
                    <mxGeometry width="50" height="50" relative="1" as="geometry">
                        <mxPoint x="240" y="160" as="sourcePoint"/>
                        <mxPoint x="80" y="160" as="targetPoint"/>
                    </mxGeometry>
                </mxCell>
                <mxCell id="18" value="x" style="text;html=1;strokeColor=none;fillColor=none;align=center;verticalAlign=middle;whiteSpace=wrap;rounded=0;fontSize=12;" parent="1" vertex="1">
                    <mxGeometry x="160" y="240" width="16.77" height="20" as="geometry"/>
                </mxCell>
                <mxCell id="19" value="y" style="text;html=1;strokeColor=none;fillColor=none;align=center;verticalAlign=middle;whiteSpace=wrap;rounded=0;fontSize=12;" parent="1" vertex="1">
                    <mxGeometry x="60" y="150" width="16.77" height="20" as="geometry"/>
                </mxCell>
                <mxCell id="20" value="" style="endArrow=none;dashed=1;html=1;fontSize=18;startArrow=none;" parent="1" edge="1">
                    <mxGeometry width="50" height="50" relative="1" as="geometry">
                        <mxPoint x="170" y="160" as="sourcePoint"/>
                        <mxPoint x="115" y="106" as="targetPoint"/>
                    </mxGeometry>
                </mxCell>
                <mxCell id="22" value="+" style="text;html=1;strokeColor=none;fillColor=none;align=center;verticalAlign=middle;whiteSpace=wrap;rounded=0;fontSize=18;" parent="1" vertex="1">
                    <mxGeometry x="240" y="230" width="20" height="20" as="geometry"/>
                </mxCell>
                <mxCell id="24" value="-" style="text;html=1;strokeColor=none;fillColor=none;align=center;verticalAlign=middle;whiteSpace=wrap;rounded=0;fontSize=18;" parent="1" vertex="1">
                    <mxGeometry x="30" y="220" width="20" height="20" as="geometry"/>
                </mxCell>
                <mxCell id="25" value="+" style="text;html=1;strokeColor=none;fillColor=none;align=center;verticalAlign=middle;whiteSpace=wrap;rounded=0;fontSize=18;" parent="1" vertex="1">
                    <mxGeometry x="60" y="60" width="40" height="20" as="geometry"/>
                </mxCell>
                <mxCell id="26" value="-" style="text;html=1;strokeColor=none;fillColor=none;align=center;verticalAlign=middle;whiteSpace=wrap;rounded=0;fontSize=18;" parent="1" vertex="1">
                    <mxGeometry x="70" y="270" width="40" height="20" as="geometry"/>
                </mxCell>
                <mxCell id="30" value="" style="verticalLabelPosition=bottom;verticalAlign=top;html=1;shape=mxgraph.basic.arc;startAngle=0.8695140721919945;endAngle=0.001607571015577117;fontSize=18;" parent="1" vertex="1">
                    <mxGeometry x="140" y="130" width="60" height="50" as="geometry"/>
                </mxCell>
                <mxCell id="32" value="θ" style="text;html=1;strokeColor=none;fillColor=none;align=center;verticalAlign=middle;whiteSpace=wrap;rounded=0;fontSize=12;" parent="1" vertex="1">
                    <mxGeometry x="146.99999999999997" y="114" width="16.77" height="20" as="geometry"/>
                </mxCell>
                <mxCell id="33" value="+" style="text;html=1;strokeColor=none;fillColor=none;align=center;verticalAlign=middle;whiteSpace=wrap;rounded=0;fontSize=18;" parent="1" vertex="1">
                    <mxGeometry x="135" y="136" width="10" height="10" as="geometry"/>
                </mxCell>
                <mxCell id="34" value="-" style="text;html=1;strokeColor=none;fillColor=none;align=center;verticalAlign=middle;whiteSpace=wrap;rounded=0;fontSize=18;" parent="1" vertex="1">
                    <mxGeometry x="173" y="116" width="10" height="10" as="geometry"/>
                </mxCell>
                <mxCell id="K4M_wsKyQ_zHcHsyj6tZ-39" value="" style="endArrow=classic;html=1;" parent="1" edge="1">
                    <mxGeometry width="50" height="50" relative="1" as="geometry">
                        <mxPoint x="40" y="600" as="sourcePoint"/>
                        <mxPoint x="240.0000000000001" y="600" as="targetPoint"/>
                    </mxGeometry>
                </mxCell>
                <mxCell id="K4M_wsKyQ_zHcHsyj6tZ-40" value="自己座標 X = (x, y, θ)" style="text;html=1;strokeColor=none;fillColor=none;align=left;verticalAlign=middle;whiteSpace=wrap;rounded=0;fontSize=18;" parent="1" vertex="1">
                    <mxGeometry x="16.77" y="380" width="193.23" height="40" as="geometry"/>
                </mxCell>
                <mxCell id="K4M_wsKyQ_zHcHsyj6tZ-41" value="" style="endArrow=classic;html=1;entryX=0.5;entryY=1;entryDx=0;entryDy=0;" parent="1" target="K4M_wsKyQ_zHcHsyj6tZ-50" edge="1">
                    <mxGeometry width="50" height="50" relative="1" as="geometry">
                        <mxPoint x="80" y="640" as="sourcePoint"/>
                        <mxPoint x="78" y="440" as="targetPoint"/>
                    </mxGeometry>
                </mxCell>
                <mxCell id="K4M_wsKyQ_zHcHsyj6tZ-43" value="" style="endArrow=none;dashed=1;html=1;fontSize=18;" parent="1" edge="1">
                    <mxGeometry width="50" height="50" relative="1" as="geometry">
                        <mxPoint x="170.0000000000001" y="440" as="sourcePoint"/>
                        <mxPoint x="170.0000000000001" y="600" as="targetPoint"/>
                    </mxGeometry>
                </mxCell>
                <mxCell id="K4M_wsKyQ_zHcHsyj6tZ-44" value="" style="endArrow=none;dashed=1;html=1;fontSize=18;" parent="1" edge="1">
                    <mxGeometry width="50" height="50" relative="1" as="geometry">
                        <mxPoint x="240.0000000000001" y="520" as="sourcePoint"/>
                        <mxPoint x="80" y="520" as="targetPoint"/>
                    </mxGeometry>
                </mxCell>
                <mxCell id="K4M_wsKyQ_zHcHsyj6tZ-45" value="x" style="text;html=1;strokeColor=none;fillColor=none;align=center;verticalAlign=middle;whiteSpace=wrap;rounded=0;fontSize=12;" parent="1" vertex="1">
                    <mxGeometry x="160" y="600" width="16.77" height="20" as="geometry"/>
                </mxCell>
                <mxCell id="K4M_wsKyQ_zHcHsyj6tZ-46" value="y" style="text;html=1;strokeColor=none;fillColor=none;align=center;verticalAlign=middle;whiteSpace=wrap;rounded=0;fontSize=12;" parent="1" vertex="1">
                    <mxGeometry x="60" y="510" width="16.77" height="20" as="geometry"/>
                </mxCell>
                <mxCell id="K4M_wsKyQ_zHcHsyj6tZ-47" value="" style="endArrow=none;dashed=1;html=1;fontSize=18;startArrow=none;" parent="1" edge="1">
                    <mxGeometry width="50" height="50" relative="1" as="geometry">
                        <mxPoint x="193" y="544" as="sourcePoint"/>
                        <mxPoint x="115" y="466" as="targetPoint"/>
                    </mxGeometry>
                </mxCell>
                <mxCell id="K4M_wsKyQ_zHcHsyj6tZ-48" value="+" style="text;html=1;strokeColor=none;fillColor=none;align=center;verticalAlign=middle;whiteSpace=wrap;rounded=0;fontSize=18;" parent="1" vertex="1">
                    <mxGeometry x="240" y="590" width="20" height="20" as="geometry"/>
                </mxCell>
                <mxCell id="K4M_wsKyQ_zHcHsyj6tZ-49" value="-" style="text;html=1;strokeColor=none;fillColor=none;align=center;verticalAlign=middle;whiteSpace=wrap;rounded=0;fontSize=18;" parent="1" vertex="1">
                    <mxGeometry x="30" y="580" width="20" height="20" as="geometry"/>
                </mxCell>
                <mxCell id="K4M_wsKyQ_zHcHsyj6tZ-50" value="+" style="text;html=1;strokeColor=none;fillColor=none;align=center;verticalAlign=middle;whiteSpace=wrap;rounded=0;fontSize=18;" parent="1" vertex="1">
                    <mxGeometry x="60" y="420" width="40" height="20" as="geometry"/>
                </mxCell>
                <mxCell id="K4M_wsKyQ_zHcHsyj6tZ-51" value="-" style="text;html=1;strokeColor=none;fillColor=none;align=center;verticalAlign=middle;whiteSpace=wrap;rounded=0;fontSize=18;" parent="1" vertex="1">
                    <mxGeometry x="70" y="630" width="40" height="20" as="geometry"/>
                </mxCell>
                <mxCell id="K4M_wsKyQ_zHcHsyj6tZ-52" value="" style="verticalLabelPosition=bottom;verticalAlign=top;html=1;shape=mxgraph.basic.arc;startAngle=0.8679086162578562;endAngle=0.001607571015577117;fontSize=18;" parent="1" vertex="1">
                    <mxGeometry x="140" y="490" width="60" height="50" as="geometry"/>
                </mxCell>
                <mxCell id="K4M_wsKyQ_zHcHsyj6tZ-53" value="θ" style="text;html=1;strokeColor=none;fillColor=none;align=center;verticalAlign=middle;whiteSpace=wrap;rounded=0;fontSize=12;" parent="1" vertex="1">
                    <mxGeometry x="143.22999999999996" y="471" width="16.77" height="20" as="geometry"/>
                </mxCell>
                <mxCell id="K4M_wsKyQ_zHcHsyj6tZ-54" value="+" style="text;html=1;strokeColor=none;fillColor=none;align=center;verticalAlign=middle;whiteSpace=wrap;rounded=0;fontSize=18;" parent="1" vertex="1">
                    <mxGeometry x="135" y="496" width="10" height="10" as="geometry"/>
                </mxCell>
                <mxCell id="K4M_wsKyQ_zHcHsyj6tZ-55" value="-" style="text;html=1;strokeColor=none;fillColor=none;align=center;verticalAlign=middle;whiteSpace=wrap;rounded=0;fontSize=18;" parent="1" vertex="1">
                    <mxGeometry x="173" y="476" width="10" height="10" as="geometry"/>
                </mxCell>
                <mxCell id="K4M_wsKyQ_zHcHsyj6tZ-57" value="" style="endArrow=none;dashed=1;html=1;fontSize=18;fillColor=#f8cecc;strokeColor=#b85450;" parent="1" edge="1">
                    <mxGeometry width="50" height="50" relative="1" as="geometry">
                        <mxPoint x="211.0000000000001" y="440" as="sourcePoint"/>
                        <mxPoint x="211.0000000000001" y="599.9999999999999" as="targetPoint"/>
                    </mxGeometry>
                </mxCell>
                <mxCell id="K4M_wsKyQ_zHcHsyj6tZ-58" value="" style="shape=flexArrow;endArrow=classic;html=1;fontSize=18;endWidth=17.619047619047617;endSize=6.252380952380952;fillColor=#ffe6cc;strokeColor=#d79b00;" parent="1" edge="1">
                    <mxGeometry width="50" height="50" relative="1" as="geometry">
                        <mxPoint x="172.99999999999997" y="560" as="sourcePoint"/>
                        <mxPoint x="209.23" y="560" as="targetPoint"/>
                        <Array as="points"/>
                    </mxGeometry>
                </mxCell>
                <mxCell id="K4M_wsKyQ_zHcHsyj6tZ-59" value="xn" style="text;html=1;strokeColor=none;fillColor=none;align=center;verticalAlign=middle;whiteSpace=wrap;rounded=0;fontSize=12;" parent="1" vertex="1">
                    <mxGeometry x="200" y="600" width="16.77" height="20" as="geometry"/>
                </mxCell>
                <mxCell id="K4M_wsKyQ_zHcHsyj6tZ-60" value="" style="endArrow=none;dashed=1;html=1;fontSize=18;fillColor=#f8cecc;strokeColor=#b85450;" parent="1" edge="1">
                    <mxGeometry width="50" height="50" relative="1" as="geometry">
                        <mxPoint x="240.0000000000001" y="490" as="sourcePoint"/>
                        <mxPoint x="80" y="490" as="targetPoint"/>
                    </mxGeometry>
                </mxCell>
                <mxCell id="K4M_wsKyQ_zHcHsyj6tZ-61" value="yn" style="text;html=1;strokeColor=none;fillColor=none;align=center;verticalAlign=middle;whiteSpace=wrap;rounded=0;fontSize=12;" parent="1" vertex="1">
                    <mxGeometry x="60" y="474" width="16.77" height="20" as="geometry"/>
                </mxCell>
                <mxCell id="K4M_wsKyQ_zHcHsyj6tZ-62" value="" style="endArrow=none;dashed=1;html=1;fontSize=18;startArrow=none;" parent="1" edge="1">
                    <mxGeometry width="50" height="50" relative="1" as="geometry">
                        <mxPoint x="229" y="525" as="sourcePoint"/>
                        <mxPoint x="184" y="438" as="targetPoint"/>
                    </mxGeometry>
                </mxCell>
                <mxCell id="K4M_wsKyQ_zHcHsyj6tZ-63" value="" style="verticalLabelPosition=bottom;verticalAlign=top;html=1;shape=mxgraph.basic.arc;startAngle=0.9287749838213742;endAngle=0.001607571015577117;fontSize=18;fillColor=#f8cecc;strokeColor=#b85450;" parent="1" vertex="1">
                    <mxGeometry x="180" y="460" width="60" height="51.12" as="geometry"/>
                </mxCell>
                <mxCell id="K4M_wsKyQ_zHcHsyj6tZ-64" value="θn" style="text;html=1;strokeColor=none;fillColor=none;align=center;verticalAlign=middle;whiteSpace=wrap;rounded=0;fontSize=12;" parent="1" vertex="1">
                    <mxGeometry x="189.99999999999997" y="440" width="16.77" height="20" as="geometry"/>
                </mxCell>
                <mxCell id="K4M_wsKyQ_zHcHsyj6tZ-65" value="自機座標 = (x, y, θ)&lt;br&gt;自機座標系の移動量 = (Δx, Δy, Δθ)&lt;br&gt;&lt;br&gt;ワールド座標系における自機の座標移動" style="text;html=1;strokeColor=none;fillColor=none;align=left;verticalAlign=top;whiteSpace=wrap;rounded=0;fontSize=12;" parent="1" vertex="1">
                    <mxGeometry x="16.77" y="660" width="333.23" height="110" as="geometry"/>
                </mxCell>
                <mxCell id="K4M_wsKyQ_zHcHsyj6tZ-73" value="" style="endArrow=none;html=1;fontSize=12;fillColor=#f8cecc;strokeColor=#b85450;targetPerimeterSpacing=0;sourcePerimeterSpacing=0;startArrow=openThin;startFill=0;" parent="1" edge="1">
                    <mxGeometry width="50" height="50" relative="1" as="geometry">
                        <mxPoint x="150" y="140" as="sourcePoint"/>
                        <mxPoint x="170" y="160" as="targetPoint"/>
                    </mxGeometry>
                </mxCell>
                <mxCell id="K4M_wsKyQ_zHcHsyj6tZ-76" value="" style="endArrow=none;html=1;fontSize=12;fillColor=#f8cecc;strokeColor=#b85450;targetPerimeterSpacing=0;sourcePerimeterSpacing=0;startArrow=openThin;startFill=0;" parent="1" edge="1">
                    <mxGeometry width="50" height="50" relative="1" as="geometry">
                        <mxPoint x="149" y="500" as="sourcePoint"/>
                        <mxPoint x="169" y="520" as="targetPoint"/>
                    </mxGeometry>
                </mxCell>
                <mxCell id="K4M_wsKyQ_zHcHsyj6tZ-77" value="" style="endArrow=none;html=1;fontSize=12;fillColor=#f8cecc;strokeColor=#b85450;targetPerimeterSpacing=0;sourcePerimeterSpacing=0;startArrow=openThin;startFill=0;exitX=0.317;exitY=0.156;exitDx=0;exitDy=0;exitPerimeter=0;" parent="1" source="K4M_wsKyQ_zHcHsyj6tZ-63" edge="1">
                    <mxGeometry width="50" height="50" relative="1" as="geometry">
                        <mxPoint x="200" y="470" as="sourcePoint"/>
                        <mxPoint x="211" y="490" as="targetPoint"/>
                        <Array as="points">
                            <mxPoint x="211" y="490"/>
                        </Array>
                    </mxGeometry>
                </mxCell>
                <mxCell id="K4M_wsKyQ_zHcHsyj6tZ-89" value="" style="endArrow=classic;startArrow=classic;html=1;fontSize=12;sourcePerimeterSpacing=0;targetPerimeterSpacing=0;" parent="1" edge="1">
                    <mxGeometry width="50" height="50" relative="1" as="geometry">
                        <mxPoint x="390" y="619.3399999999999" as="sourcePoint"/>
                        <mxPoint x="470" y="619.17" as="targetPoint"/>
                    </mxGeometry>
                </mxCell>
                <mxCell id="K4M_wsKyQ_zHcHsyj6tZ-90" value="" style="endArrow=classic;startArrow=classic;html=1;fontSize=12;sourcePerimeterSpacing=0;targetPerimeterSpacing=0;" parent="1" edge="1">
                    <mxGeometry width="50" height="50" relative="1" as="geometry">
                        <mxPoint x="520" y="520" as="sourcePoint"/>
                        <mxPoint x="520" y="567" as="targetPoint"/>
                    </mxGeometry>
                </mxCell>
                <mxCell id="K4M_wsKyQ_zHcHsyj6tZ-83" value="" style="ellipse;whiteSpace=wrap;html=1;fontSize=12;fillColor=#f8cecc;align=left;verticalAlign=top;strokeColor=#b85450;" parent="1" vertex="1">
                    <mxGeometry x="380" y="560" width="20" height="20" as="geometry"/>
                </mxCell>
                <mxCell id="K4M_wsKyQ_zHcHsyj6tZ-92" value="" style="endArrow=classic;html=1;fontSize=12;sourcePerimeterSpacing=0;targetPerimeterSpacing=0;fillColor=#f8cecc;strokeColor=#b85450;" parent="1" source="K4M_wsKyQ_zHcHsyj6tZ-83" edge="1">
                    <mxGeometry x="480" y="559.31" width="50" height="50" as="geometry">
                        <mxPoint x="495" y="584.31" as="sourcePoint"/>
                        <mxPoint x="340" y="540" as="targetPoint"/>
                    </mxGeometry>
                </mxCell>
                <mxCell id="K4M_wsKyQ_zHcHsyj6tZ-93" value="" style="ellipse;whiteSpace=wrap;html=1;fontSize=12;fillColor=#f8cecc;align=left;verticalAlign=top;strokeColor=#b85450;" parent="1" vertex="1">
                    <mxGeometry x="460" y="511" width="20" height="20" as="geometry"/>
                </mxCell>
                <mxCell id="K4M_wsKyQ_zHcHsyj6tZ-95" value="" style="endArrow=none;dashed=1;html=1;fontSize=12;sourcePerimeterSpacing=0;targetPerimeterSpacing=0;" parent="1" edge="1">
                    <mxGeometry width="50" height="50" relative="1" as="geometry">
                        <mxPoint x="340" y="570" as="sourcePoint"/>
                        <mxPoint x="570" y="570" as="targetPoint"/>
                    </mxGeometry>
                </mxCell>
                <mxCell id="K4M_wsKyQ_zHcHsyj6tZ-96" value="" style="endArrow=none;dashed=1;html=1;fontSize=12;sourcePerimeterSpacing=0;targetPerimeterSpacing=0;" parent="1" edge="1">
                    <mxGeometry width="50" height="50" relative="1" as="geometry">
                        <mxPoint x="340" y="520" as="sourcePoint"/>
                        <mxPoint x="570" y="520" as="targetPoint"/>
                    </mxGeometry>
                </mxCell>
                <mxCell id="K4M_wsKyQ_zHcHsyj6tZ-97" value="" style="endArrow=none;dashed=1;html=1;fontSize=12;sourcePerimeterSpacing=0;targetPerimeterSpacing=0;" parent="1" edge="1">
                    <mxGeometry width="50" height="50" relative="1" as="geometry">
                        <mxPoint x="390" y="450" as="sourcePoint"/>
                        <mxPoint x="390" y="670" as="targetPoint"/>
                    </mxGeometry>
                </mxCell>
                <mxCell id="K4M_wsKyQ_zHcHsyj6tZ-98" value="" style="endArrow=none;dashed=1;html=1;fontSize=12;sourcePerimeterSpacing=0;targetPerimeterSpacing=0;" parent="1" edge="1">
                    <mxGeometry width="50" height="50" relative="1" as="geometry">
                        <mxPoint x="470" y="450" as="sourcePoint"/>
                        <mxPoint x="470" y="670" as="targetPoint"/>
                    </mxGeometry>
                </mxCell>
                <mxCell id="K4M_wsKyQ_zHcHsyj6tZ-99" value="xn-1" style="text;html=1;strokeColor=none;fillColor=none;align=center;verticalAlign=middle;whiteSpace=wrap;rounded=0;fontSize=12;" parent="1" vertex="1">
                    <mxGeometry x="380" y="670" width="30" height="20" as="geometry"/>
                </mxCell>
                <mxCell id="K4M_wsKyQ_zHcHsyj6tZ-101" value="" style="verticalLabelPosition=bottom;verticalAlign=top;html=1;shape=mxgraph.basic.arc;startAngle=0.8420270429678114;endAngle=0.001607571015577117;fontSize=18;" parent="1" vertex="1">
                    <mxGeometry x="360" y="540" width="60" height="60" as="geometry"/>
                </mxCell>
                <mxCell id="K4M_wsKyQ_zHcHsyj6tZ-102" value="yn-1" style="text;html=1;strokeColor=none;fillColor=none;align=center;verticalAlign=middle;whiteSpace=wrap;rounded=0;fontSize=12;" parent="1" vertex="1">
                    <mxGeometry x="550" y="550" width="30" height="20" as="geometry"/>
                </mxCell>
                <mxCell id="K4M_wsKyQ_zHcHsyj6tZ-94" value="" style="endArrow=classic;html=1;fontSize=12;sourcePerimeterSpacing=0;targetPerimeterSpacing=0;fillColor=#f8cecc;strokeColor=#b85450;" parent="1" source="K4M_wsKyQ_zHcHsyj6tZ-93" edge="1">
                    <mxGeometry x="560" y="510.30999999999995" width="50" height="50" as="geometry">
                        <mxPoint x="575" y="535.31" as="sourcePoint"/>
                        <mxPoint x="470" y="460" as="targetPoint"/>
                    </mxGeometry>
                </mxCell>
                <mxCell id="K4M_wsKyQ_zHcHsyj6tZ-105" value="θn-1" style="text;html=1;strokeColor=none;fillColor=none;align=center;verticalAlign=middle;whiteSpace=wrap;rounded=0;fontSize=12;" parent="1" vertex="1">
                    <mxGeometry x="350" y="520" width="30" height="20" as="geometry"/>
                </mxCell>
                <mxCell id="K4M_wsKyQ_zHcHsyj6tZ-106" value="現在時刻の自機座標&lt;br&gt;&amp;nbsp;= (0, 0, 0)" style="text;html=1;strokeColor=none;fillColor=none;align=left;verticalAlign=middle;whiteSpace=wrap;rounded=0;fontSize=9;" parent="1" vertex="1">
                    <mxGeometry x="480" y="480" width="110" height="31" as="geometry"/>
                </mxCell>
                <mxCell id="K4M_wsKyQ_zHcHsyj6tZ-107" value="一時刻前の自機座標&lt;br&gt;&amp;nbsp;= (xn-1, yn-1, θn-1)" style="text;html=1;strokeColor=none;fillColor=none;align=left;verticalAlign=middle;whiteSpace=wrap;rounded=0;fontSize=9;" parent="1" vertex="1">
                    <mxGeometry x="300" y="580" width="110" height="31" as="geometry"/>
                </mxCell>
                <mxCell id="K4M_wsKyQ_zHcHsyj6tZ-108" value="xn-1" style="endArrow=classic;startArrow=classic;html=1;fontSize=9;sourcePerimeterSpacing=0;targetPerimeterSpacing=0;" parent="1" edge="1">
                    <mxGeometry x="310" y="760" width="50" height="50" as="geometry">
                        <mxPoint x="432" y="950" as="sourcePoint"/>
                        <mxPoint x="501" y="910" as="targetPoint"/>
                    </mxGeometry>
                </mxCell>
                <mxCell id="K4M_wsKyQ_zHcHsyj6tZ-109" value="yn-1" style="endArrow=classic;startArrow=classic;html=1;fontSize=9;sourcePerimeterSpacing=0;targetPerimeterSpacing=0;" parent="1" edge="1">
                    <mxGeometry x="310" y="760" width="50" height="50" as="geometry">
                        <mxPoint x="495" y="799" as="sourcePoint"/>
                        <mxPoint x="519" y="840" as="targetPoint"/>
                    </mxGeometry>
                </mxCell>
                <mxCell id="K4M_wsKyQ_zHcHsyj6tZ-110" value="" style="ellipse;whiteSpace=wrap;html=1;fontSize=12;fillColor=#f8cecc;align=left;verticalAlign=top;strokeColor=#b85450;rotation=-30;" parent="1" vertex="1">
                    <mxGeometry x="397" y="897" width="20" height="20" as="geometry"/>
                </mxCell>
                <mxCell id="K4M_wsKyQ_zHcHsyj6tZ-112" value="" style="ellipse;whiteSpace=wrap;html=1;fontSize=12;fillColor=#f8cecc;align=left;verticalAlign=top;strokeColor=#b85450;rotation=-30;" parent="1" vertex="1">
                    <mxGeometry x="442" y="815" width="20" height="20" as="geometry"/>
                </mxCell>
                <mxCell id="K4M_wsKyQ_zHcHsyj6tZ-113" value="" style="endArrow=none;dashed=1;html=1;fontSize=12;sourcePerimeterSpacing=0;targetPerimeterSpacing=0;" parent="1" edge="1">
                    <mxGeometry x="310" y="760" width="50" height="50" as="geometry">
                        <mxPoint x="364" y="932" as="sourcePoint"/>
                        <mxPoint x="564" y="818" as="targetPoint"/>
                    </mxGeometry>
                </mxCell>
                <mxCell id="K4M_wsKyQ_zHcHsyj6tZ-114" value="" style="endArrow=none;dashed=1;html=1;fontSize=12;sourcePerimeterSpacing=0;targetPerimeterSpacing=0;" parent="1" edge="1">
                    <mxGeometry x="310" y="760" width="50" height="50" as="geometry">
                        <mxPoint x="339" y="889" as="sourcePoint"/>
                        <mxPoint x="538" y="774" as="targetPoint"/>
                    </mxGeometry>
                </mxCell>
                <mxCell id="K4M_wsKyQ_zHcHsyj6tZ-115" value="" style="endArrow=none;dashed=1;html=1;fontSize=12;sourcePerimeterSpacing=0;targetPerimeterSpacing=0;" parent="1" edge="1">
                    <mxGeometry x="310" y="760" width="50" height="50" as="geometry">
                        <mxPoint x="347" y="803" as="sourcePoint"/>
                        <mxPoint x="458" y="994" as="targetPoint"/>
                    </mxGeometry>
                </mxCell>
                <mxCell id="K4M_wsKyQ_zHcHsyj6tZ-116" value="" style="endArrow=none;dashed=1;html=1;fontSize=12;sourcePerimeterSpacing=0;targetPerimeterSpacing=0;" parent="1" edge="1">
                    <mxGeometry x="310" y="760" width="50" height="50" as="geometry">
                        <mxPoint x="417" y="764" as="sourcePoint"/>
                        <mxPoint x="527" y="954" as="targetPoint"/>
                    </mxGeometry>
                </mxCell>
                <mxCell id="K4M_wsKyQ_zHcHsyj6tZ-117" value="xn-1" style="text;html=1;strokeColor=none;fillColor=none;align=center;verticalAlign=middle;whiteSpace=wrap;rounded=0;fontSize=12;rotation=-30;" parent="1" vertex="1">
                    <mxGeometry x="451.46" y="990" width="28" height="20" as="geometry"/>
                </mxCell>
                <mxCell id="K4M_wsKyQ_zHcHsyj6tZ-118" value="" style="verticalLabelPosition=bottom;verticalAlign=top;html=1;shape=mxgraph.basic.arc;startAngle=0.8420270429678114;endAngle=0.001607571015577117;fontSize=18;rotation=-30;" parent="1" vertex="1">
                    <mxGeometry x="377" y="877" width="60" height="60" as="geometry"/>
                </mxCell>
                <mxCell id="K4M_wsKyQ_zHcHsyj6tZ-120" value="" style="endArrow=classic;html=1;fontSize=12;sourcePerimeterSpacing=0;targetPerimeterSpacing=0;fillColor=#f8cecc;strokeColor=#b85450;" parent="1" source="K4M_wsKyQ_zHcHsyj6tZ-112" edge="1">
                    <mxGeometry x="534" y="755" width="50" height="50" as="geometry">
                        <mxPoint x="551" y="785" as="sourcePoint"/>
                        <mxPoint x="422" y="772" as="targetPoint"/>
                    </mxGeometry>
                </mxCell>
                <mxCell id="K4M_wsKyQ_zHcHsyj6tZ-121" value="θn-1" style="text;html=1;strokeColor=none;fillColor=none;align=center;verticalAlign=middle;whiteSpace=wrap;rounded=0;fontSize=9;rotation=-30;" parent="1" vertex="1">
                    <mxGeometry x="350" y="877" width="40" height="20" as="geometry"/>
                </mxCell>
                <mxCell id="K4M_wsKyQ_zHcHsyj6tZ-122" value="現在時刻の自機座標&lt;br&gt;&amp;nbsp;= (0, 0, 0)" style="text;html=1;strokeColor=none;fillColor=none;align=left;verticalAlign=middle;whiteSpace=wrap;rounded=0;fontSize=9;rotation=-30;" parent="1" vertex="1">
                    <mxGeometry x="449" y="750" width="110" height="31" as="geometry"/>
                </mxCell>
                <mxCell id="K4M_wsKyQ_zHcHsyj6tZ-123" value="一時刻前の自機座標&lt;br&gt;&amp;nbsp;= (xn-1, yn-1, θn-1)" style="text;html=1;strokeColor=none;fillColor=none;align=left;verticalAlign=middle;whiteSpace=wrap;rounded=0;fontSize=9;rotation=-30;" parent="1" vertex="1">
                    <mxGeometry x="335" y="931" width="110" height="31" as="geometry"/>
                </mxCell>
                <mxCell id="K4M_wsKyQ_zHcHsyj6tZ-131" value="0" style="text;html=1;strokeColor=none;fillColor=none;align=center;verticalAlign=middle;whiteSpace=wrap;rounded=0;fontSize=12;" parent="1" vertex="1">
                    <mxGeometry x="550" y="500" width="20" height="20" as="geometry"/>
                </mxCell>
                <mxCell id="K4M_wsKyQ_zHcHsyj6tZ-132" value="0" style="text;html=1;strokeColor=none;fillColor=none;align=center;verticalAlign=middle;whiteSpace=wrap;rounded=0;fontSize=12;" parent="1" vertex="1">
                    <mxGeometry x="460" y="670" width="20" height="20" as="geometry"/>
                </mxCell>
                <mxCell id="K4M_wsKyQ_zHcHsyj6tZ-134" value="" style="endArrow=none;dashed=1;html=1;fontSize=12;sourcePerimeterSpacing=0;targetPerimeterSpacing=0;fillColor=#dae8fc;strokeColor=#6c8ebf;" parent="1" edge="1">
                    <mxGeometry x="318" y="768" width="50" height="50" as="geometry">
                        <mxPoint x="408" y="740" as="sourcePoint"/>
                        <mxPoint x="408" y="1008" as="targetPoint"/>
                    </mxGeometry>
                </mxCell>
                <mxCell id="K4M_wsKyQ_zHcHsyj6tZ-136" value="" style="endArrow=none;dashed=1;html=1;fontSize=12;sourcePerimeterSpacing=0;targetPerimeterSpacing=0;fillColor=#dae8fc;strokeColor=#6c8ebf;" parent="1" edge="1">
                    <mxGeometry x="362" y="768" width="50" height="50" as="geometry">
                        <mxPoint x="452" y="740" as="sourcePoint"/>
                        <mxPoint x="452" y="1008" as="targetPoint"/>
                    </mxGeometry>
                </mxCell>
                <mxCell id="K4M_wsKyQ_zHcHsyj6tZ-137" value="" style="endArrow=none;dashed=1;html=1;fontSize=12;sourcePerimeterSpacing=0;targetPerimeterSpacing=0;fillColor=#dae8fc;strokeColor=#6c8ebf;" parent="1" edge="1">
                    <mxGeometry x="242" y="772.8" width="50" height="50" as="geometry">
                        <mxPoint x="522" y="824.8" as="sourcePoint"/>
                        <mxPoint x="292" y="824.8" as="targetPoint"/>
                    </mxGeometry>
                </mxCell>
                <mxCell id="K4M_wsKyQ_zHcHsyj6tZ-138" value="" style="endArrow=none;dashed=1;html=1;fontSize=12;sourcePerimeterSpacing=0;targetPerimeterSpacing=0;fillColor=#dae8fc;strokeColor=#6c8ebf;" parent="1" edge="1">
                    <mxGeometry x="240" y="854" width="50" height="50" as="geometry">
                        <mxPoint x="520" y="906" as="sourcePoint"/>
                        <mxPoint x="290" y="906" as="targetPoint"/>
                    </mxGeometry>
                </mxCell>
                <mxCell id="K4M_wsKyQ_zHcHsyj6tZ-111" value="" style="endArrow=classic;html=1;fontSize=12;sourcePerimeterSpacing=0;targetPerimeterSpacing=0;fillColor=#f8cecc;strokeColor=#b85450;" parent="1" source="K4M_wsKyQ_zHcHsyj6tZ-110" edge="1">
                    <mxGeometry x="489" y="837" width="50" height="50" as="geometry">
                        <mxPoint x="505" y="868" as="sourcePoint"/>
                        <mxPoint x="349" y="906" as="targetPoint"/>
                    </mxGeometry>
                </mxCell>
                <mxCell id="K4M_wsKyQ_zHcHsyj6tZ-142" value="" style="endArrow=classic;html=1;fontSize=12;sourcePerimeterSpacing=0;targetPerimeterSpacing=0;fillColor=#fff2cc;strokeColor=#d6b656;" parent="1" edge="1">
                    <mxGeometry x="570" y="520.31" width="50" height="50" as="geometry">
                        <mxPoint x="390" y="570" as="sourcePoint"/>
                        <mxPoint x="470" y="520" as="targetPoint"/>
                    </mxGeometry>
                </mxCell>
                <mxCell id="K4M_wsKyQ_zHcHsyj6tZ-143" value="" style="endArrow=classic;html=1;fontSize=12;sourcePerimeterSpacing=0;targetPerimeterSpacing=0;fillColor=#fff2cc;strokeColor=#d6b656;" parent="1" edge="1">
                    <mxGeometry x="570" y="660.31" width="50" height="50" as="geometry">
                        <mxPoint x="408" y="906" as="sourcePoint"/>
                        <mxPoint x="452" y="824" as="targetPoint"/>
                    </mxGeometry>
                </mxCell>
                <mxCell id="K4M_wsKyQ_zHcHsyj6tZ-144" value="ベクトル(xn-1, yn-1)を現在角で回転させるとワールド座標系の移動量になる。" style="text;html=1;strokeColor=none;fillColor=none;align=center;verticalAlign=middle;whiteSpace=wrap;rounded=0;fontSize=9;fontColor=#FFFF00;" parent="1" vertex="1">
                    <mxGeometry x="451.46" y="710" width="168.54" height="20" as="geometry"/>
                </mxCell>
            </root>
        </mxGraphModel>
    </diagram>
    <diagram id="-75Kk3S_Xw4FiSOrHMcW" name="車輪">
        <mxGraphModel dx="1204" dy="790" grid="1" gridSize="10" guides="1" tooltips="1" connect="1" arrows="1" fold="1" page="1" pageScale="1" pageWidth="827" pageHeight="1169" math="0" shadow="0">
            <root>
                <mxCell id="90VOWxVML8U75cC75mfW-0"/>
                <mxCell id="90VOWxVML8U75cC75mfW-1" parent="90VOWxVML8U75cC75mfW-0"/>
                <mxCell id="90VOWxVML8U75cC75mfW-2" value="" style="ellipse;whiteSpace=wrap;html=1;aspect=fixed;" parent="90VOWxVML8U75cC75mfW-1" vertex="1">
                    <mxGeometry x="80" y="80" width="250" height="250" as="geometry"/>
                </mxCell>
                <mxCell id="90VOWxVML8U75cC75mfW-4" value="" style="endArrow=none;html=1;exitX=0;exitY=0.5;exitDx=0;exitDy=0;entryX=1;entryY=0.5;entryDx=0;entryDy=0;" parent="90VOWxVML8U75cC75mfW-1" source="90VOWxVML8U75cC75mfW-2" target="90VOWxVML8U75cC75mfW-2" edge="1">
                    <mxGeometry width="50" height="50" relative="1" as="geometry">
                        <mxPoint x="390" y="430" as="sourcePoint"/>
                        <mxPoint x="320" y="205" as="targetPoint"/>
                    </mxGeometry>
                </mxCell>
                <mxCell id="90VOWxVML8U75cC75mfW-5" value="48mm" style="edgeLabel;html=1;align=center;verticalAlign=middle;resizable=0;points=[];" parent="90VOWxVML8U75cC75mfW-4" vertex="1" connectable="0">
                    <mxGeometry x="0.456" y="1" relative="1" as="geometry">
                        <mxPoint x="-57" y="1" as="offset"/>
                    </mxGeometry>
                </mxCell>
                <mxCell id="90VOWxVML8U75cC75mfW-6" value="円周&lt;br&gt;= 48 * 2 * pi&lt;br&gt;=301.44&amp;nbsp;(mm)" style="text;html=1;strokeColor=none;fillColor=none;align=left;verticalAlign=middle;whiteSpace=wrap;rounded=0;" parent="90VOWxVML8U75cC75mfW-1" vertex="1">
                    <mxGeometry x="340" y="50" width="130" height="50" as="geometry"/>
                </mxCell>
                <mxCell id="90VOWxVML8U75cC75mfW-8" value="1pulse = 0.9 degree&lt;br&gt;400pulse = 360 degree" style="text;html=1;strokeColor=none;fillColor=none;align=left;verticalAlign=middle;whiteSpace=wrap;rounded=0;shadow=0;rotation=0;" parent="90VOWxVML8U75cC75mfW-1" vertex="1">
                    <mxGeometry x="340" y="110" width="130" height="50" as="geometry"/>
                </mxCell>
                <mxCell id="90VOWxVML8U75cC75mfW-10" value="1pulse = (48 * 2 * pi) * 0.9 / 360" style="text;html=1;strokeColor=none;fillColor=none;align=left;verticalAlign=middle;whiteSpace=wrap;rounded=0;shadow=0;rotation=0;" parent="90VOWxVML8U75cC75mfW-1" vertex="1">
                    <mxGeometry x="340" y="170" width="270" height="50" as="geometry"/>
                </mxCell>
                <mxCell id="90VOWxVML8U75cC75mfW-11" value="周波数は速度&lt;br&gt;パルス数は距離" style="text;html=1;strokeColor=none;fillColor=none;align=left;verticalAlign=middle;whiteSpace=wrap;rounded=0;shadow=0;rotation=0;" parent="90VOWxVML8U75cC75mfW-1" vertex="1">
                    <mxGeometry x="340" y="230" width="270" height="50" as="geometry"/>
                </mxCell>
                <mxCell id="90VOWxVML8U75cC75mfW-12" value="400 Hz&lt;br&gt;= 1s に 車輪1回転&lt;br&gt;= 1s で 301.44mm進む&lt;br&gt;=&amp;nbsp; 301.44 mm/s" style="text;html=1;strokeColor=none;fillColor=none;align=left;verticalAlign=middle;whiteSpace=wrap;rounded=0;shadow=0;rotation=0;" parent="90VOWxVML8U75cC75mfW-1" vertex="1">
                    <mxGeometry x="340" y="330" width="270" height="50" as="geometry"/>
                </mxCell>
            </root>
        </mxGraphModel>
    </diagram>
    <diagram id="-z8JAuI81cnkUNGF8VW-" name="クラス接続図">
        <mxGraphModel dx="1204" dy="790" grid="1" gridSize="10" guides="1" tooltips="1" connect="1" arrows="1" fold="1" page="1" pageScale="1" pageWidth="1654" pageHeight="1169" math="0" shadow="0">
            <root>
                <mxCell id="2VneoyqomcPCIqSZgyOW-0"/>
                <mxCell id="2VneoyqomcPCIqSZgyOW-1" parent="2VneoyqomcPCIqSZgyOW-0"/>
                <mxCell id="2VneoyqomcPCIqSZgyOW-7" style="edgeStyle=none;html=1;exitX=0.25;exitY=1;exitDx=0;exitDy=0;entryX=0.4;entryY=0;entryDx=0;entryDy=0;entryPerimeter=0;" parent="2VneoyqomcPCIqSZgyOW-1" source="2VneoyqomcPCIqSZgyOW-2" target="2VneoyqomcPCIqSZgyOW-3" edge="1">
                    <mxGeometry relative="1" as="geometry"/>
                </mxCell>
                <mxCell id="2VneoyqomcPCIqSZgyOW-2" value="Slam" style="rounded=0;whiteSpace=wrap;html=1;" parent="2VneoyqomcPCIqSZgyOW-1" vertex="1">
                    <mxGeometry x="140" y="50" width="480" height="40" as="geometry"/>
                </mxCell>
                <mxCell id="2VneoyqomcPCIqSZgyOW-3" value="DataRetriever&lt;br&gt;(データ取得用クラス)&lt;br&gt;onlineの場合はISensorとIOdometoryから取得。&lt;br&gt;offlineの場合はfileから取得する。" style="rounded=0;whiteSpace=wrap;html=1;" parent="2VneoyqomcPCIqSZgyOW-1" vertex="1">
                    <mxGeometry x="110" y="170" width="260" height="110" as="geometry"/>
                </mxCell>
                <mxCell id="2VneoyqomcPCIqSZgyOW-4" value="ISensor&lt;br&gt;Sensorから点群を取得する" style="rounded=0;whiteSpace=wrap;html=1;" parent="2VneoyqomcPCIqSZgyOW-1" vertex="1">
                    <mxGeometry x="70" y="410" width="190" height="60" as="geometry"/>
                </mxCell>
                <mxCell id="2VneoyqomcPCIqSZgyOW-5" value="IOdometory&lt;br&gt;PulseCounterからOdometoryを取得する。" style="rounded=0;whiteSpace=wrap;html=1;" parent="2VneoyqomcPCIqSZgyOW-1" vertex="1">
                    <mxGeometry x="310" y="410" width="180" height="60" as="geometry"/>
                </mxCell>
                <mxCell id="2VneoyqomcPCIqSZgyOW-6" value="IPlotter&lt;br&gt;Gnuplotで表示する用" style="rounded=0;whiteSpace=wrap;html=1;" parent="2VneoyqomcPCIqSZgyOW-1" vertex="1">
                    <mxGeometry x="500" y="240" width="160" height="40" as="geometry"/>
                </mxCell>
                <mxCell id="2VneoyqomcPCIqSZgyOW-8" style="edgeStyle=none;html=1;exitX=0.25;exitY=1;exitDx=0;exitDy=0;entryX=0.442;entryY=-0.021;entryDx=0;entryDy=0;entryPerimeter=0;" parent="2VneoyqomcPCIqSZgyOW-1" source="2VneoyqomcPCIqSZgyOW-3" target="2VneoyqomcPCIqSZgyOW-4" edge="1">
                    <mxGeometry relative="1" as="geometry">
                        <mxPoint x="159.66" y="280" as="sourcePoint"/>
                        <mxPoint x="159.66" y="320" as="targetPoint"/>
                    </mxGeometry>
                </mxCell>
                <mxCell id="2VneoyqomcPCIqSZgyOW-9" style="edgeStyle=none;html=1;exitX=0.75;exitY=1;exitDx=0;exitDy=0;entryX=0.5;entryY=0;entryDx=0;entryDy=0;" parent="2VneoyqomcPCIqSZgyOW-1" source="2VneoyqomcPCIqSZgyOW-3" target="2VneoyqomcPCIqSZgyOW-5" edge="1">
                    <mxGeometry relative="1" as="geometry">
                        <mxPoint x="280" y="280" as="sourcePoint"/>
                        <mxPoint x="280" y="320" as="targetPoint"/>
                    </mxGeometry>
                </mxCell>
                <mxCell id="2VneoyqomcPCIqSZgyOW-10" style="edgeStyle=none;html=1;exitX=0.75;exitY=1;exitDx=0;exitDy=0;entryX=0.5;entryY=0;entryDx=0;entryDy=0;" parent="2VneoyqomcPCIqSZgyOW-1" source="2VneoyqomcPCIqSZgyOW-2" target="2VneoyqomcPCIqSZgyOW-6" edge="1">
                    <mxGeometry relative="1" as="geometry">
                        <mxPoint x="399.66" y="200" as="sourcePoint"/>
                        <mxPoint x="399.66" y="240" as="targetPoint"/>
                    </mxGeometry>
                </mxCell>
            </root>
        </mxGraphModel>
    </diagram>
    <diagram id="bXIQoyNwM6v_AIFiD-ge" name="GridMap">
        <mxGraphModel dx="1204" dy="790" grid="1" gridSize="10" guides="1" tooltips="1" connect="1" arrows="1" fold="1" page="1" pageScale="1" pageWidth="1654" pageHeight="1169" math="0" shadow="0">
            <root>
                <mxCell id="s0iwyxnJ4YR5jnliWwYN-0"/>
                <mxCell id="s0iwyxnJ4YR5jnliWwYN-1" parent="s0iwyxnJ4YR5jnliWwYN-0"/>
                <mxCell id="YQFd1MGDAjkHEo5EVxZL-0" value="" style="rounded=0;whiteSpace=wrap;html=1;fillColor=none;" parent="s0iwyxnJ4YR5jnliWwYN-1" vertex="1">
                    <mxGeometry x="120" y="320" width="800" height="800" as="geometry"/>
                </mxCell>
                <mxCell id="YQFd1MGDAjkHEo5EVxZL-12" value="" style="endArrow=none;html=1;" parent="s0iwyxnJ4YR5jnliWwYN-1" edge="1">
                    <mxGeometry width="50" height="50" relative="1" as="geometry">
                        <mxPoint x="520" y="1200" as="sourcePoint"/>
                        <mxPoint x="520" y="240" as="targetPoint"/>
                    </mxGeometry>
                </mxCell>
                <mxCell id="YQFd1MGDAjkHEo5EVxZL-13" value="" style="endArrow=none;html=1;" parent="s0iwyxnJ4YR5jnliWwYN-1" edge="1">
                    <mxGeometry width="50" height="50" relative="1" as="geometry">
                        <mxPoint x="1000" y="720" as="sourcePoint"/>
                        <mxPoint x="40" y="720" as="targetPoint"/>
                    </mxGeometry>
                </mxCell>
                <mxCell id="YQFd1MGDAjkHEo5EVxZL-14" value="-50" style="text;html=1;strokeColor=none;fillColor=none;align=center;verticalAlign=middle;whiteSpace=wrap;rounded=0;fontSize=23;" parent="s0iwyxnJ4YR5jnliWwYN-1" vertex="1">
                    <mxGeometry x="50" y="690" width="60" height="30" as="geometry"/>
                </mxCell>
                <mxCell id="YQFd1MGDAjkHEo5EVxZL-15" value="50" style="text;html=1;strokeColor=none;fillColor=none;align=center;verticalAlign=middle;whiteSpace=wrap;rounded=0;fontSize=23;" parent="s0iwyxnJ4YR5jnliWwYN-1" vertex="1">
                    <mxGeometry x="920" y="690" width="60" height="30" as="geometry"/>
                </mxCell>
                <mxCell id="YQFd1MGDAjkHEo5EVxZL-16" value="50" style="text;html=1;strokeColor=none;fillColor=none;align=center;verticalAlign=middle;whiteSpace=wrap;rounded=0;fontSize=23;" parent="s0iwyxnJ4YR5jnliWwYN-1" vertex="1">
                    <mxGeometry x="350" y="80" width="60" height="30" as="geometry"/>
                </mxCell>
                <mxCell id="YQFd1MGDAjkHEo5EVxZL-17" value="-50" style="text;html=1;strokeColor=none;fillColor=none;align=center;verticalAlign=middle;whiteSpace=wrap;rounded=0;fontSize=23;" parent="s0iwyxnJ4YR5jnliWwYN-1" vertex="1">
                    <mxGeometry x="520" y="1170" width="60" height="30" as="geometry"/>
                </mxCell>
                <mxCell id="CNqhToLLrnaBKujrAL99-0" value="" style="endArrow=none;dashed=1;html=1;dashPattern=1 3;strokeWidth=2;entryX=0.549;entryY=1.001;entryDx=0;entryDy=0;entryPerimeter=0;exitX=0.549;exitY=0.001;exitDx=0;exitDy=0;exitPerimeter=0;" parent="s0iwyxnJ4YR5jnliWwYN-1" source="YQFd1MGDAjkHEo5EVxZL-0" target="YQFd1MGDAjkHEo5EVxZL-0" edge="1">
                    <mxGeometry width="50" height="50" relative="1" as="geometry">
                        <mxPoint x="680" y="270" as="sourcePoint"/>
                        <mxPoint x="1141.4285714285713" y="1130" as="targetPoint"/>
                    </mxGeometry>
                </mxCell>
                <mxCell id="CNqhToLLrnaBKujrAL99-1" value="" style="endArrow=none;dashed=1;html=1;dashPattern=1 3;strokeWidth=2;entryX=0.549;entryY=1.001;entryDx=0;entryDy=0;entryPerimeter=0;exitX=0.549;exitY=0.001;exitDx=0;exitDy=0;exitPerimeter=0;" parent="s0iwyxnJ4YR5jnliWwYN-1" edge="1">
                    <mxGeometry width="50" height="50" relative="1" as="geometry">
                        <mxPoint x="600.0000000000002" y="319.99999999999994" as="sourcePoint"/>
                        <mxPoint x="600.0000000000002" y="1120.0000000000002" as="targetPoint"/>
                    </mxGeometry>
                </mxCell>
                <mxCell id="CNqhToLLrnaBKujrAL99-2" value="" style="endArrow=none;dashed=1;html=1;dashPattern=1 3;strokeWidth=2;entryX=0.549;entryY=1.001;entryDx=0;entryDy=0;entryPerimeter=0;exitX=0.549;exitY=0.001;exitDx=0;exitDy=0;exitPerimeter=0;" parent="s0iwyxnJ4YR5jnliWwYN-1" edge="1">
                    <mxGeometry width="50" height="50" relative="1" as="geometry">
                        <mxPoint x="640.0000000000002" y="320.79999999999995" as="sourcePoint"/>
                        <mxPoint x="640.0000000000002" y="1120.8000000000002" as="targetPoint"/>
                    </mxGeometry>
                </mxCell>
                <mxCell id="CNqhToLLrnaBKujrAL99-3" value="" style="endArrow=none;dashed=1;html=1;dashPattern=1 3;strokeWidth=2;entryX=0.549;entryY=1.001;entryDx=0;entryDy=0;entryPerimeter=0;exitX=0.549;exitY=0.001;exitDx=0;exitDy=0;exitPerimeter=0;" parent="s0iwyxnJ4YR5jnliWwYN-1" edge="1">
                    <mxGeometry width="50" height="50" relative="1" as="geometry">
                        <mxPoint x="680.8" y="320" as="sourcePoint"/>
                        <mxPoint x="680.8" y="1120" as="targetPoint"/>
                    </mxGeometry>
                </mxCell>
                <mxCell id="CNqhToLLrnaBKujrAL99-4" value="" style="endArrow=none;dashed=1;html=1;dashPattern=1 3;strokeWidth=2;entryX=0.549;entryY=1.001;entryDx=0;entryDy=0;entryPerimeter=0;exitX=0.549;exitY=0.001;exitDx=0;exitDy=0;exitPerimeter=0;" parent="s0iwyxnJ4YR5jnliWwYN-1" edge="1">
                    <mxGeometry width="50" height="50" relative="1" as="geometry">
                        <mxPoint x="720.0000000000002" y="320.79999999999995" as="sourcePoint"/>
                        <mxPoint x="720.0000000000002" y="1120.8000000000002" as="targetPoint"/>
                    </mxGeometry>
                </mxCell>
                <mxCell id="CNqhToLLrnaBKujrAL99-5" value="" style="endArrow=none;dashed=1;html=1;dashPattern=1 3;strokeWidth=2;entryX=0.549;entryY=1.001;entryDx=0;entryDy=0;entryPerimeter=0;exitX=0.549;exitY=0.001;exitDx=0;exitDy=0;exitPerimeter=0;" parent="s0iwyxnJ4YR5jnliWwYN-1" edge="1">
                    <mxGeometry width="50" height="50" relative="1" as="geometry">
                        <mxPoint x="760.8" y="320" as="sourcePoint"/>
                        <mxPoint x="760.8" y="1120" as="targetPoint"/>
                    </mxGeometry>
                </mxCell>
                <mxCell id="CNqhToLLrnaBKujrAL99-6" value="" style="endArrow=none;dashed=1;html=1;dashPattern=1 3;strokeWidth=2;entryX=0.549;entryY=1.001;entryDx=0;entryDy=0;entryPerimeter=0;exitX=0.549;exitY=0.001;exitDx=0;exitDy=0;exitPerimeter=0;" parent="s0iwyxnJ4YR5jnliWwYN-1" edge="1">
                    <mxGeometry width="50" height="50" relative="1" as="geometry">
                        <mxPoint x="800.8" y="320.79999999999995" as="sourcePoint"/>
                        <mxPoint x="800.8" y="1120.8000000000002" as="targetPoint"/>
                    </mxGeometry>
                </mxCell>
                <mxCell id="CNqhToLLrnaBKujrAL99-7" value="" style="endArrow=none;dashed=1;html=1;dashPattern=1 3;strokeWidth=2;entryX=0.549;entryY=1.001;entryDx=0;entryDy=0;entryPerimeter=0;exitX=0.549;exitY=0.001;exitDx=0;exitDy=0;exitPerimeter=0;" parent="s0iwyxnJ4YR5jnliWwYN-1" edge="1">
                    <mxGeometry width="50" height="50" relative="1" as="geometry">
                        <mxPoint x="841.6000000000001" y="320" as="sourcePoint"/>
                        <mxPoint x="841.6000000000001" y="1120" as="targetPoint"/>
                    </mxGeometry>
                </mxCell>
                <mxCell id="CNqhToLLrnaBKujrAL99-8" value="" style="endArrow=none;dashed=1;html=1;dashPattern=1 3;strokeWidth=2;entryX=0.549;entryY=1.001;entryDx=0;entryDy=0;entryPerimeter=0;exitX=0.549;exitY=0.001;exitDx=0;exitDy=0;exitPerimeter=0;" parent="s0iwyxnJ4YR5jnliWwYN-1" edge="1">
                    <mxGeometry width="50" height="50" relative="1" as="geometry">
                        <mxPoint x="880.0000000000003" y="320" as="sourcePoint"/>
                        <mxPoint x="880.0000000000003" y="1120" as="targetPoint"/>
                    </mxGeometry>
                </mxCell>
                <mxCell id="CNqhToLLrnaBKujrAL99-9" value="" style="endArrow=none;dashed=1;html=1;dashPattern=1 3;strokeWidth=2;exitX=0.002;exitY=0.05;exitDx=0;exitDy=0;exitPerimeter=0;entryX=1.002;entryY=0.051;entryDx=0;entryDy=0;entryPerimeter=0;" parent="s0iwyxnJ4YR5jnliWwYN-1" source="YQFd1MGDAjkHEo5EVxZL-0" target="YQFd1MGDAjkHEo5EVxZL-0" edge="1">
                    <mxGeometry width="50" height="50" relative="1" as="geometry">
                        <mxPoint x="80" y="390" as="sourcePoint"/>
                        <mxPoint x="1080" y="530" as="targetPoint"/>
                    </mxGeometry>
                </mxCell>
                <mxCell id="CNqhToLLrnaBKujrAL99-10" value="" style="endArrow=none;dashed=1;html=1;dashPattern=1 3;strokeWidth=2;exitX=0.002;exitY=0.05;exitDx=0;exitDy=0;exitPerimeter=0;entryX=1.002;entryY=0.051;entryDx=0;entryDy=0;entryPerimeter=0;" parent="s0iwyxnJ4YR5jnliWwYN-1" edge="1">
                    <mxGeometry width="50" height="50" relative="1" as="geometry">
                        <mxPoint x="119.99999999999991" y="400" as="sourcePoint"/>
                        <mxPoint x="919.9999999999999" y="400.80000000000007" as="targetPoint"/>
                    </mxGeometry>
                </mxCell>
                <mxCell id="CNqhToLLrnaBKujrAL99-11" value="" style="endArrow=none;dashed=1;html=1;dashPattern=1 3;strokeWidth=2;exitX=0.002;exitY=0.05;exitDx=0;exitDy=0;exitPerimeter=0;entryX=1.002;entryY=0.051;entryDx=0;entryDy=0;entryPerimeter=0;" parent="s0iwyxnJ4YR5jnliWwYN-1" edge="1">
                    <mxGeometry width="50" height="50" relative="1" as="geometry">
                        <mxPoint x="121.59999999999991" y="440" as="sourcePoint"/>
                        <mxPoint x="921.5999999999999" y="440.79999999999995" as="targetPoint"/>
                    </mxGeometry>
                </mxCell>
                <mxCell id="CNqhToLLrnaBKujrAL99-12" value="" style="endArrow=none;dashed=1;html=1;dashPattern=1 3;strokeWidth=2;exitX=0.002;exitY=0.05;exitDx=0;exitDy=0;exitPerimeter=0;entryX=1.002;entryY=0.051;entryDx=0;entryDy=0;entryPerimeter=0;" parent="s0iwyxnJ4YR5jnliWwYN-1" edge="1">
                    <mxGeometry width="50" height="50" relative="1" as="geometry">
                        <mxPoint x="120" y="480" as="sourcePoint"/>
                        <mxPoint x="920" y="480.80000000000007" as="targetPoint"/>
                    </mxGeometry>
                </mxCell>
                <mxCell id="CNqhToLLrnaBKujrAL99-13" value="" style="endArrow=none;dashed=1;html=1;dashPattern=1 3;strokeWidth=2;exitX=0.002;exitY=0.05;exitDx=0;exitDy=0;exitPerimeter=0;entryX=1.002;entryY=0.051;entryDx=0;entryDy=0;entryPerimeter=0;" parent="s0iwyxnJ4YR5jnliWwYN-1" edge="1">
                    <mxGeometry width="50" height="50" relative="1" as="geometry">
                        <mxPoint x="121.59999999999991" y="520" as="sourcePoint"/>
                        <mxPoint x="921.5999999999999" y="520.8" as="targetPoint"/>
                    </mxGeometry>
                </mxCell>
                <mxCell id="CNqhToLLrnaBKujrAL99-14" value="" style="endArrow=none;dashed=1;html=1;dashPattern=1 3;strokeWidth=2;exitX=0.002;exitY=0.05;exitDx=0;exitDy=0;exitPerimeter=0;entryX=1.002;entryY=0.051;entryDx=0;entryDy=0;entryPerimeter=0;" parent="s0iwyxnJ4YR5jnliWwYN-1" edge="1">
                    <mxGeometry width="50" height="50" relative="1" as="geometry">
                        <mxPoint x="120" y="560" as="sourcePoint"/>
                        <mxPoint x="920" y="560.8000000000001" as="targetPoint"/>
                    </mxGeometry>
                </mxCell>
                <mxCell id="CNqhToLLrnaBKujrAL99-15" value="" style="endArrow=none;dashed=1;html=1;dashPattern=1 3;strokeWidth=2;exitX=0.002;exitY=0.05;exitDx=0;exitDy=0;exitPerimeter=0;entryX=1.002;entryY=0.051;entryDx=0;entryDy=0;entryPerimeter=0;" parent="s0iwyxnJ4YR5jnliWwYN-1" edge="1">
                    <mxGeometry width="50" height="50" relative="1" as="geometry">
                        <mxPoint x="121.59999999999991" y="600" as="sourcePoint"/>
                        <mxPoint x="921.5999999999999" y="600.8" as="targetPoint"/>
                    </mxGeometry>
                </mxCell>
                <mxCell id="CNqhToLLrnaBKujrAL99-16" value="" style="endArrow=none;dashed=1;html=1;dashPattern=1 3;strokeWidth=2;exitX=0.002;exitY=0.05;exitDx=0;exitDy=0;exitPerimeter=0;entryX=1.002;entryY=0.051;entryDx=0;entryDy=0;entryPerimeter=0;" parent="s0iwyxnJ4YR5jnliWwYN-1" edge="1">
                    <mxGeometry width="50" height="50" relative="1" as="geometry">
                        <mxPoint x="120" y="640" as="sourcePoint"/>
                        <mxPoint x="920" y="640.8000000000002" as="targetPoint"/>
                    </mxGeometry>
                </mxCell>
                <mxCell id="CNqhToLLrnaBKujrAL99-17" value="" style="endArrow=none;dashed=1;html=1;dashPattern=1 3;strokeWidth=2;exitX=0.002;exitY=0.05;exitDx=0;exitDy=0;exitPerimeter=0;entryX=1.002;entryY=0.051;entryDx=0;entryDy=0;entryPerimeter=0;" parent="s0iwyxnJ4YR5jnliWwYN-1" edge="1">
                    <mxGeometry width="50" height="50" relative="1" as="geometry">
                        <mxPoint x="119.99999999999991" y="680" as="sourcePoint"/>
                        <mxPoint x="919.9999999999999" y="680.8" as="targetPoint"/>
                    </mxGeometry>
                </mxCell>
                <mxCell id="CNqhToLLrnaBKujrAL99-18" value="" style="ellipse;whiteSpace=wrap;html=1;fillColor=#d80073;fontColor=#ffffff;strokeColor=#A50040;" parent="s0iwyxnJ4YR5jnliWwYN-1" vertex="1">
                    <mxGeometry x="530" y="340" width="10" height="10" as="geometry"/>
                </mxCell>
                <mxCell id="CNqhToLLrnaBKujrAL99-19" value="" style="endArrow=classic;html=1;entryX=1;entryY=0;entryDx=0;entryDy=0;fillColor=#d80073;strokeColor=#A50040;exitX=0.5;exitY=1;exitDx=0;exitDy=0;" parent="s0iwyxnJ4YR5jnliWwYN-1" source="CNqhToLLrnaBKujrAL99-20" target="CNqhToLLrnaBKujrAL99-18" edge="1">
                    <mxGeometry width="50" height="50" relative="1" as="geometry">
                        <mxPoint x="610" y="270" as="sourcePoint"/>
                        <mxPoint x="610" y="280" as="targetPoint"/>
                    </mxGeometry>
                </mxCell>
                <mxCell id="CNqhToLLrnaBKujrAL99-20" value="0 ≦ x ＜ 5" style="text;html=1;align=center;verticalAlign=middle;whiteSpace=wrap;rounded=0;fontColor=#FF3399;" parent="s0iwyxnJ4YR5jnliWwYN-1" vertex="1">
                    <mxGeometry x="530" y="190" width="60" height="20" as="geometry"/>
                </mxCell>
                <mxCell id="CNqhToLLrnaBKujrAL99-24" value="" style="ellipse;whiteSpace=wrap;html=1;fillColor=#d80073;fontColor=#ffffff;strokeColor=#A50040;" parent="s0iwyxnJ4YR5jnliWwYN-1" vertex="1">
                    <mxGeometry x="490" y="340" width="10" height="10" as="geometry"/>
                </mxCell>
                <mxCell id="CNqhToLLrnaBKujrAL99-25" value="" style="endArrow=classic;html=1;entryX=0;entryY=0;entryDx=0;entryDy=0;fillColor=#d80073;strokeColor=#A50040;exitX=0.547;exitY=1.027;exitDx=0;exitDy=0;exitPerimeter=0;" parent="s0iwyxnJ4YR5jnliWwYN-1" source="CNqhToLLrnaBKujrAL99-26" target="CNqhToLLrnaBKujrAL99-24" edge="1">
                    <mxGeometry width="50" height="50" relative="1" as="geometry">
                        <mxPoint x="570" y="270" as="sourcePoint"/>
                        <mxPoint x="570" y="280" as="targetPoint"/>
                    </mxGeometry>
                </mxCell>
                <mxCell id="CNqhToLLrnaBKujrAL99-26" value="-5 ≦ x ＜ 0" style="text;html=1;align=center;verticalAlign=middle;whiteSpace=wrap;rounded=0;fontColor=#FF3399;" parent="s0iwyxnJ4YR5jnliWwYN-1" vertex="1">
                    <mxGeometry x="390" y="180" width="80" height="20" as="geometry"/>
                </mxCell>
                <mxCell id="CNqhToLLrnaBKujrAL99-27" value="" style="ellipse;whiteSpace=wrap;html=1;fillColor=#d80073;fontColor=#ffffff;strokeColor=#A50040;" parent="s0iwyxnJ4YR5jnliWwYN-1" vertex="1">
                    <mxGeometry x="580" y="340" width="10" height="10" as="geometry"/>
                </mxCell>
                <mxCell id="CNqhToLLrnaBKujrAL99-28" value="" style="endArrow=classic;html=1;entryX=1;entryY=0;entryDx=0;entryDy=0;fillColor=#d80073;strokeColor=#A50040;exitX=0.5;exitY=1;exitDx=0;exitDy=0;" parent="s0iwyxnJ4YR5jnliWwYN-1" source="CNqhToLLrnaBKujrAL99-29" target="CNqhToLLrnaBKujrAL99-27" edge="1">
                    <mxGeometry width="50" height="50" relative="1" as="geometry">
                        <mxPoint x="660" y="270" as="sourcePoint"/>
                        <mxPoint x="660" y="280" as="targetPoint"/>
                    </mxGeometry>
                </mxCell>
                <mxCell id="CNqhToLLrnaBKujrAL99-29" value="5 ≦ x ＜ 10" style="text;html=1;align=center;verticalAlign=middle;whiteSpace=wrap;rounded=0;fontColor=#FF3399;" parent="s0iwyxnJ4YR5jnliWwYN-1" vertex="1">
                    <mxGeometry x="590" y="160" width="70" height="20" as="geometry"/>
                </mxCell>
                <mxCell id="nJBCyQQd4ySjy3U1cGnD-0" value="0" style="text;html=1;strokeColor=none;fillColor=none;align=center;verticalAlign=middle;whiteSpace=wrap;rounded=0;fontSize=23;" parent="s0iwyxnJ4YR5jnliWwYN-1" vertex="1">
                    <mxGeometry x="120" y="280" width="40" height="40" as="geometry"/>
                </mxCell>
                <mxCell id="nJBCyQQd4ySjy3U1cGnD-1" value="1" style="text;html=1;strokeColor=none;fillColor=none;align=center;verticalAlign=middle;whiteSpace=wrap;rounded=0;fontSize=23;" parent="s0iwyxnJ4YR5jnliWwYN-1" vertex="1">
                    <mxGeometry x="160" y="280" width="40" height="40" as="geometry"/>
                </mxCell>
                <mxCell id="nJBCyQQd4ySjy3U1cGnD-2" value="2" style="text;html=1;strokeColor=none;fillColor=none;align=center;verticalAlign=middle;whiteSpace=wrap;rounded=0;fontSize=23;" parent="s0iwyxnJ4YR5jnliWwYN-1" vertex="1">
                    <mxGeometry x="200" y="280" width="40" height="40" as="geometry"/>
                </mxCell>
                <mxCell id="nJBCyQQd4ySjy3U1cGnD-3" value="3" style="text;html=1;strokeColor=none;fillColor=none;align=center;verticalAlign=middle;whiteSpace=wrap;rounded=0;fontSize=23;" parent="s0iwyxnJ4YR5jnliWwYN-1" vertex="1">
                    <mxGeometry x="240" y="280" width="40" height="40" as="geometry"/>
                </mxCell>
                <mxCell id="nJBCyQQd4ySjy3U1cGnD-4" value="4" style="text;html=1;strokeColor=none;fillColor=none;align=center;verticalAlign=middle;whiteSpace=wrap;rounded=0;fontSize=23;" parent="s0iwyxnJ4YR5jnliWwYN-1" vertex="1">
                    <mxGeometry x="280" y="280" width="40" height="40" as="geometry"/>
                </mxCell>
                <mxCell id="nJBCyQQd4ySjy3U1cGnD-5" value="5" style="text;html=1;strokeColor=none;fillColor=none;align=center;verticalAlign=middle;whiteSpace=wrap;rounded=0;fontSize=23;" parent="s0iwyxnJ4YR5jnliWwYN-1" vertex="1">
                    <mxGeometry x="320" y="280" width="40" height="40" as="geometry"/>
                </mxCell>
                <mxCell id="nJBCyQQd4ySjy3U1cGnD-6" value="6" style="text;html=1;strokeColor=none;fillColor=none;align=center;verticalAlign=middle;whiteSpace=wrap;rounded=0;fontSize=23;" parent="s0iwyxnJ4YR5jnliWwYN-1" vertex="1">
                    <mxGeometry x="360" y="280" width="40" height="40" as="geometry"/>
                </mxCell>
                <mxCell id="nJBCyQQd4ySjy3U1cGnD-7" value="7" style="text;html=1;strokeColor=none;fillColor=none;align=center;verticalAlign=middle;whiteSpace=wrap;rounded=0;fontSize=23;" parent="s0iwyxnJ4YR5jnliWwYN-1" vertex="1">
                    <mxGeometry x="400" y="280" width="40" height="40" as="geometry"/>
                </mxCell>
                <mxCell id="nJBCyQQd4ySjy3U1cGnD-8" value="8" style="text;html=1;strokeColor=none;fillColor=none;align=center;verticalAlign=middle;whiteSpace=wrap;rounded=0;fontSize=23;" parent="s0iwyxnJ4YR5jnliWwYN-1" vertex="1">
                    <mxGeometry x="440" y="280" width="40" height="40" as="geometry"/>
                </mxCell>
                <mxCell id="nJBCyQQd4ySjy3U1cGnD-9" value="9" style="text;html=1;strokeColor=none;fillColor=none;align=center;verticalAlign=middle;whiteSpace=wrap;rounded=0;fontSize=23;" parent="s0iwyxnJ4YR5jnliWwYN-1" vertex="1">
                    <mxGeometry x="480" y="280" width="40" height="40" as="geometry"/>
                </mxCell>
                <mxCell id="nJBCyQQd4ySjy3U1cGnD-10" value="10" style="text;html=1;strokeColor=none;fillColor=none;align=center;verticalAlign=middle;whiteSpace=wrap;rounded=0;fontSize=23;" parent="s0iwyxnJ4YR5jnliWwYN-1" vertex="1">
                    <mxGeometry x="520" y="280" width="40" height="40" as="geometry"/>
                </mxCell>
                <mxCell id="nJBCyQQd4ySjy3U1cGnD-11" value="11" style="text;html=1;strokeColor=none;fillColor=none;align=center;verticalAlign=middle;whiteSpace=wrap;rounded=0;fontSize=23;" parent="s0iwyxnJ4YR5jnliWwYN-1" vertex="1">
                    <mxGeometry x="560" y="280" width="40" height="40" as="geometry"/>
                </mxCell>
                <mxCell id="nJBCyQQd4ySjy3U1cGnD-12" value="12" style="text;html=1;strokeColor=none;fillColor=none;align=center;verticalAlign=middle;whiteSpace=wrap;rounded=0;fontSize=23;" parent="s0iwyxnJ4YR5jnliWwYN-1" vertex="1">
                    <mxGeometry x="600" y="280" width="40" height="40" as="geometry"/>
                </mxCell>
                <mxCell id="nJBCyQQd4ySjy3U1cGnD-13" value="13" style="text;html=1;strokeColor=none;fillColor=none;align=center;verticalAlign=middle;whiteSpace=wrap;rounded=0;fontSize=23;" parent="s0iwyxnJ4YR5jnliWwYN-1" vertex="1">
                    <mxGeometry x="640" y="280" width="40" height="40" as="geometry"/>
                </mxCell>
                <mxCell id="nJBCyQQd4ySjy3U1cGnD-14" value="14" style="text;html=1;strokeColor=none;fillColor=none;align=center;verticalAlign=middle;whiteSpace=wrap;rounded=0;fontSize=23;" parent="s0iwyxnJ4YR5jnliWwYN-1" vertex="1">
                    <mxGeometry x="680" y="280" width="40" height="40" as="geometry"/>
                </mxCell>
                <mxCell id="nJBCyQQd4ySjy3U1cGnD-15" value="15" style="text;html=1;strokeColor=none;fillColor=none;align=center;verticalAlign=middle;whiteSpace=wrap;rounded=0;fontSize=23;" parent="s0iwyxnJ4YR5jnliWwYN-1" vertex="1">
                    <mxGeometry x="720" y="280" width="40" height="40" as="geometry"/>
                </mxCell>
                <mxCell id="nJBCyQQd4ySjy3U1cGnD-16" value="16" style="text;html=1;strokeColor=none;fillColor=none;align=center;verticalAlign=middle;whiteSpace=wrap;rounded=0;fontSize=23;" parent="s0iwyxnJ4YR5jnliWwYN-1" vertex="1">
                    <mxGeometry x="760" y="280" width="40" height="40" as="geometry"/>
                </mxCell>
                <mxCell id="nJBCyQQd4ySjy3U1cGnD-17" value="17" style="text;html=1;strokeColor=none;fillColor=none;align=center;verticalAlign=middle;whiteSpace=wrap;rounded=0;fontSize=23;" parent="s0iwyxnJ4YR5jnliWwYN-1" vertex="1">
                    <mxGeometry x="800" y="280" width="40" height="40" as="geometry"/>
                </mxCell>
                <mxCell id="nJBCyQQd4ySjy3U1cGnD-18" value="18" style="text;html=1;strokeColor=none;fillColor=none;align=center;verticalAlign=middle;whiteSpace=wrap;rounded=0;fontSize=23;" parent="s0iwyxnJ4YR5jnliWwYN-1" vertex="1">
                    <mxGeometry x="840" y="280" width="40" height="40" as="geometry"/>
                </mxCell>
                <mxCell id="nJBCyQQd4ySjy3U1cGnD-19" value="19" style="text;html=1;strokeColor=none;fillColor=none;align=center;verticalAlign=middle;whiteSpace=wrap;rounded=0;fontSize=23;" parent="s0iwyxnJ4YR5jnliWwYN-1" vertex="1">
                    <mxGeometry x="880" y="280" width="40" height="40" as="geometry"/>
                </mxCell>
                <mxCell id="nJBCyQQd4ySjy3U1cGnD-22" value="" style="ellipse;whiteSpace=wrap;html=1;fillColor=#d80073;fontColor=#ffffff;strokeColor=#A50040;" parent="s0iwyxnJ4YR5jnliWwYN-1" vertex="1">
                    <mxGeometry x="140" y="340" width="10" height="10" as="geometry"/>
                </mxCell>
                <mxCell id="nJBCyQQd4ySjy3U1cGnD-23" value="" style="endArrow=classic;html=1;entryX=0;entryY=0;entryDx=0;entryDy=0;fillColor=#d80073;strokeColor=#A50040;exitX=0.547;exitY=1.027;exitDx=0;exitDy=0;exitPerimeter=0;" parent="s0iwyxnJ4YR5jnliWwYN-1" source="nJBCyQQd4ySjy3U1cGnD-24" target="nJBCyQQd4ySjy3U1cGnD-22" edge="1">
                    <mxGeometry width="50" height="50" relative="1" as="geometry">
                        <mxPoint x="220" y="270" as="sourcePoint"/>
                        <mxPoint x="220" y="280" as="targetPoint"/>
                    </mxGeometry>
                </mxCell>
                <mxCell id="nJBCyQQd4ySjy3U1cGnD-24" value="-50 ≦ x ＜ -45" style="text;html=1;align=center;verticalAlign=middle;whiteSpace=wrap;rounded=0;fontColor=#FF3399;" parent="s0iwyxnJ4YR5jnliWwYN-1" vertex="1">
                    <mxGeometry x="150" y="210" width="80" height="20" as="geometry"/>
                </mxCell>
                <mxCell id="nJBCyQQd4ySjy3U1cGnD-25" value="" style="endArrow=classic;html=1;entryX=1;entryY=0;entryDx=0;entryDy=0;fillColor=#d80073;strokeColor=#A50040;exitX=0.5;exitY=1;exitDx=0;exitDy=0;" parent="s0iwyxnJ4YR5jnliWwYN-1" source="nJBCyQQd4ySjy3U1cGnD-26" edge="1">
                    <mxGeometry width="50" height="50" relative="1" as="geometry">
                        <mxPoint x="971.46" y="270" as="sourcePoint"/>
                        <mxPoint x="899.9955339059327" y="341.46446609406723" as="targetPoint"/>
                    </mxGeometry>
                </mxCell>
                <mxCell id="nJBCyQQd4ySjy3U1cGnD-26" value="45 ≦ x ＜ 50" style="text;html=1;align=center;verticalAlign=middle;whiteSpace=wrap;rounded=0;fontColor=#FF3399;" parent="s0iwyxnJ4YR5jnliWwYN-1" vertex="1">
                    <mxGeometry x="901.46" y="160" width="98.54" height="20" as="geometry"/>
                </mxCell>
            </root>
        </mxGraphModel>
    </diagram>
</mxfile>